<?xml version="1.0" encoding="UTF-8"?>
<svg width="219px" height="64px" viewBox="0 0 219 64" version="1.1" xmlns="http://www.w3.org/2000/svg" xmlns:xlink="http://www.w3.org/1999/xlink">
    <!-- Generator: Sketch 46.2 (44496) - http://www.bohemiancoding.com/sketch -->
    <title>Signature</title>
    <desc>Created with Sketch.</desc>
    <defs></defs>
    <g id="Symbols" stroke="none" stroke-width="1" fill="none" fill-rule="evenodd">
        <g id="Footer" transform="translate(-613.000000, -244.000000)" stroke-width="0.5" stroke="#D6F3EE" fill="#EDF8FC">
            <g id="Signature" transform="translate(614.000000, 245.000000)">
                <path d="M55.5160704,1.22440739 C46.6595863,3.57612915 40.6176628,6.94422002 30.3538984,15.2440466 C22.216691,21.8269911 12.2093643,31.5935164 7.27762867,37.7699134 C-0.440521999,47.4332381 -1.95725744,54.0537102 2.43032983,58.9103909 C6.29878703,63.1916503 12.8160585,63.0290312 23.5645528,58.3881335 C28.4337426,56.2834676 28.8621813,56.1927762 29.528294,57.0934356 C30.1568792,57.9471857 30.3945532,57.9690767 31.4953591,57.2748184 C33.3154417,56.1271032 34.9666506,55.3421535 40.5613716,52.9685407 C43.3102591,51.7989344 46.4219123,50.2603079 47.4726816,49.5472859 C48.5234509,48.8342639 49.6242568,48.252588 49.918222,48.252588 C50.6625169,48.252588 50.5937166,50.1383436 49.8181488,50.9139114 C49.4678923,51.2641679 49.3490553,51.9803172 49.5492018,52.5088291 C50.0777138,53.8848365 54.7530117,53.2343603 58.3243764,51.2923135 C60.8074443,49.9413244 61.2702832,49.8568876 62.7995278,50.4917273 C64.8823026,51.3548593 68.5599952,50.5824187 72.3127427,48.4965166 C75.3743592,46.7921438 75.6558152,46.7952711 76.3188006,48.5340441 L76.8535671,49.9413244 L79.2553255,49.0031375 C80.578169,48.4840074 82.1574502,47.7272034 82.7672717,47.3144011 C84.3215346,46.2667591 84.703064,46.3668324 85.3128854,47.9711319 C85.6068506,48.7435725 86.2041629,49.3784123 86.6357289,49.3784123 C88.127446,49.3784123 91.4486276,47.6928032 92.7714711,46.2667591 C94.0380233,44.9032609 94.1756241,44.8751153 95.7486507,45.6975924 C99.0823414,47.4363654 100.63035,46.7014524 101.283953,43.0769238 C101.534136,41.6884072 102.200249,40.606365 103.266655,39.8464336 C105.549576,38.2202431 105.802887,39.4430133 104.004695,43.4177983 C102.681852,46.3449414 102.631815,46.6983251 103.448038,47.5145477 C104.786518,48.8499003 106.112488,48.0399323 106.128125,45.8821025 C106.134379,44.8657334 106.784856,42.2638285 107.57606,40.0997441 C109.68698,34.320513 109.674471,34.3893133 108.598684,33.9765111 C107.901298,33.7075642 106.953729,34.2736036 105.321284,35.9216852 C102.306577,38.964538 101.355881,39.4523951 100.483367,38.4016258 C99.4701253,37.1788556 98.3036463,37.388384 97.609388,38.9145013 C96.7306197,40.8409117 89.3939983,46.7421071 88.36512,46.3480687 C87.6458434,46.0697399 87.6833709,45.7194835 88.6278124,43.868128 C89.2345065,42.6828853 90.1257841,41.3819328 90.6136412,40.9785125 C91.7300836,40.0528347 91.7582292,38.3515892 90.6636779,37.9325324 C90.1601843,37.7386405 89.4377804,38.1795883 88.8373408,39.0427202 C86.5200192,42.3795382 84.6373909,44.2215117 82.2575235,45.4818094 C77.2976422,48.1149873 78.2483383,44.3184577 83.5741124,40.2217084 C85.9508525,38.3984986 86.5387829,36.6659801 84.9876473,36.0686678 C84.0963698,35.7277933 83.3145474,36.4314334 79.0927065,41.3694237 C76.4157466,44.5029678 66.1582368,49.5504132 64.5226643,48.5402986 C63.3499307,47.8178948 64.0660801,46.7108342 68.903997,41.7790986 C74.7238829,35.8466303 82.7015986,25.410865 82.27316,24.2912953 C81.7383934,22.8996514 80.3999135,23.4656908 77.9137183,26.1332688 C76.5721111,27.5718221 73.9889699,30.1674724 72.1751419,31.8968635 C68.4567946,35.4400826 66.2708192,38.3640984 63.3374216,43.7242727 C61.5142118,47.0517088 60.9700634,47.583348 57.7145549,49.2001567 C53.5646417,51.2610406 52.7984557,51.4017686 52.3293623,50.1789984 C51.9415784,49.1626293 56.1540374,44.515477 58.1867757,43.7180181 C59.0342711,43.3833981 59.4502006,42.7516856 59.4502006,41.8009896 C59.4502006,39.7119602 58.3556493,40.0497075 55.0313405,43.1707424 C52.4419447,45.6037737 45.8965276,49.3784123 44.270337,49.3784123 C42.6128736,49.3784123 44.4110651,47.4989112 49.9213493,43.4740895 C53.3082039,41.0004035 56.0758552,38.6705728 56.0789825,38.2984253 C56.0789825,37.9294051 57.6082271,35.9029215 59.475219,33.8013829 C72.6129625,19.0218124 75.599524,4.93650011 66.4271837,1.00549712 C63.1810571,-0.386146742 61.4547933,-0.351746557 55.5160704,1.22440739 M66.5397661,3.54485625 C70.5051693,6.14363389 70.4738964,11.8290463 66.4490747,19.9443628 C65.048049,22.7714326 62.4492713,26.8212726 60.6760982,28.9384476 C58.902925,31.0587499 56.7232041,33.7544735 55.8319266,34.9303344 C54.7623936,36.3438693 52.9516929,37.6604582 50.5061525,38.8019189 C44.561175,41.5789521 40.8834824,44.1839843 36.6804052,48.6059717 C32.9558034,52.5213383 32.4460552,52.852831 27.1234083,54.7823686 C24.0305189,55.9050656 20.1088978,57.3311096 18.4107796,57.9565676 C16.709534,58.5820255 13.3633342,59.2168653 10.9740849,59.3669752 L6.63340702,59.6390493 L4.65070543,57.6563478 C0.88857607,53.8942184 2.09883714,48.3057519 8.50665347,39.818288 C11.4087782,35.9717218 21.7038155,25.4046104 27.9677765,19.8411622 C42.7098195,6.74407349 60.16635,-0.633202618 66.5397661,3.54485625 M70.7678616,37.1600919 C69.832802,38.0951515 69.3011628,37.1663465 70.1736766,36.1155772 C70.6990612,35.4807374 71.0055356,35.4056824 71.1619001,35.8716486 C71.2838644,36.2406688 71.1087362,36.8223446 70.7678616,37.1600919 M69.2135987,38.9770471 C68.8695968,39.8683247 67.8845006,40.1466534 67.8845006,39.3523219 C67.8845006,38.7550096 68.5005767,38.1326789 69.0853798,38.1326789 C69.3324357,38.1326789 69.3918542,38.511081 69.2135987,38.9770471 M47.6446825,43.1457241 C47.6446825,44.0807837 40.4988258,49.1657566 39.9515501,48.6184809 C39.5324933,48.1994241 41.5495951,45.6256648 42.866184,44.8970063 C43.4853874,44.5530044 44.6237208,43.9056555 45.3961613,43.4584531 C47.0317337,42.5140116 47.6446825,42.4264475 47.6446825,43.1457241 M150.251053,4.6706805 C143.546145,6.48138116 133.24798,11.3349346 129.814216,14.3027324 C128.04417,15.831977 127.881551,16.1759788 128.544536,16.976565 C129.745416,18.4213728 130.658584,18.0711163 132.384848,15.5036116 C133.360562,14.0494219 134.420714,13.1143624 135.093081,13.1143624 C136.534761,13.1143624 136.403415,14.7530621 134.195549,24.3569684 C133.272998,28.3786628 132.39423,32.2252289 132.240993,32.9101054 C132.043974,33.8013829 131.287169,34.3486586 129.582797,34.8365157 C126.730709,35.6527383 125.792522,36.2938327 125.792522,37.4321661 C125.792522,38.0857696 126.239724,38.2077339 127.750205,37.960678 C128.825993,37.7886771 129.836107,37.8480956 129.989344,38.0982788 C130.142581,38.3484619 129.520251,39.9121067 128.603955,41.5758248 C126.558708,45.2879175 126.427361,46.7139615 128.15988,46.4637784 C129.185631,46.3167958 129.679743,45.4098818 131.008841,41.2255683 C131.896991,38.4422806 132.985288,35.7621934 133.43249,35.2680817 C134.189294,34.4299681 137.335347,33.3854534 148.562317,30.2394001 C151.036003,29.5451418 154.957624,28.8602654 157.278073,28.7132827 C161.021439,28.478736 161.612496,28.5788093 162.547556,29.6170694 C163.126105,30.2581638 163.473234,31.1087866 163.316869,31.5059523 C163.163632,31.9031181 160.664928,33.4636356 157.76593,34.9709892 C154.87006,36.4783428 151.739643,38.2608978 150.810838,38.9363924 C149.885161,39.6087596 147.674167,40.8815665 145.900994,41.7634621 C144.124693,42.6453578 142.251447,43.8368551 141.738571,44.4060218 C141.219441,44.9751885 140.590856,45.4411547 140.334418,45.4411547 C140.081108,45.4411547 138.032733,46.6670522 135.784212,48.1650239 C133.535691,49.6629956 130.495965,51.5862787 129.026139,52.4369015 C126.611872,53.8347999 125.714339,55.2952441 126.680672,56.2615766 C127.07471,56.6556151 146.223104,47.1517821 150.532509,44.4216583 C159.661068,38.6392999 163.573307,35.314991 164.727277,32.3690843 C165.149461,31.2839148 166.322195,31.2495146 166.672451,32.3065385 C166.778779,32.6192674 166.212739,33.8357831 165.415281,35.0085167 C164.617822,36.1812503 164.045528,37.5541304 164.142474,38.057624 C164.345748,39.1396662 167.247872,39.6337779 168.142277,38.7393731 C168.47377,38.4047531 169.36192,38.1326789 170.109342,38.1326789 C171.338367,38.1326789 171.43844,38.3078072 171.119457,39.8995976 C170.659745,42.20441 171.538514,43.1926335 174.0466,43.1926335 C175.547699,43.1926335 176.529668,42.7360492 177.905675,41.4006966 L179.753903,39.6118869 L181.06111,40.8409117 C182.903084,42.5703029 184.485492,42.3732836 187.002961,40.0997441 C188.200712,39.0177019 189.551702,38.1326789 190.008286,38.1326789 C190.46487,38.1326789 191.315493,37.604167 191.900296,36.9568181 C193.779797,34.8802978 194.692966,34.6801513 196.33792,35.9717218 C197.638872,36.9974728 198.333131,37.1163098 201.316565,36.8317265 C203.224212,36.6472164 206.304592,35.96234 208.159074,35.3087365 C213.503612,33.4198536 214.063397,33.3510532 214.057143,34.5519324 C214.047761,36.3501239 211.511529,41.1598953 209.5257,43.1457241 C207.202124,45.4693003 204.697165,46.5669789 201.710603,46.5669789 C199.846739,46.5669789 199.443318,46.7577436 199.443318,47.6521484 C199.443318,49.2658298 201.31031,49.5691769 204.872293,48.5340441 C210.67967,46.8453077 213.766305,43.1644879 216.246245,34.9772438 C216.796648,33.1571612 217.143777,31.3495879 217.012431,30.9649312 C216.743484,30.1549632 215.101657,30.0267444 214.31358,30.7554028 C213.397285,31.599771 204.828511,34.2110578 201.798167,34.5706961 C197.588836,35.0679352 197.332398,33.8326558 200.894381,30.217509 C203.389958,27.6812772 203.543195,27.3748028 202.720718,26.5523257 C202.007696,25.8361763 201.582385,25.7830124 200.634816,26.2896333 C199.981212,26.6398898 199.443318,27.171529 199.443318,27.4686215 C199.443318,28.3505172 195.43726,32.5191942 193.751651,33.391708 C190.174032,35.2399361 190.042686,33.5042904 193.47645,29.817216 C196.018936,27.0870922 200.569143,19.0687217 200.569143,17.3174395 C200.569143,16.2291428 199.377645,15.5348845 198.508259,16.1165603 C198.204912,16.3198342 196.913341,18.6371557 195.63428,21.2672063 C191.875278,28.9947388 191.237311,29.839107 189.439119,29.4419412 C188.310168,29.1948853 187.38449,29.4857233 185.974082,30.5271107 C183.81938,32.1157738 182.831156,32.2377381 179.710121,31.3026785 C177.642983,30.6834752 177.467855,30.7366391 175.316279,32.6818132 C172.861357,34.8990615 168.24235,37.247656 167.379218,36.7160168 C166.250267,36.0186312 166.928889,34.6363692 169.927959,31.5434798 C171.629205,29.7859431 173.020849,28.0221518 173.020849,27.6187314 C173.020849,26.3240335 170.712909,26.8400363 168.429988,28.6476097 L166.206485,30.4082737 L164.261311,28.2848441 L162.316137,26.1614145 L157.687748,26.5210528 C155.145262,26.718072 151.036003,27.5124036 148.562317,28.2817168 C146.088631,29.05103 143.749418,29.6858698 143.361634,29.6921244 C141.657262,29.7108881 142.98636,28.4161902 147.120637,26.0331956 C152.330701,23.0278703 160.217725,15.6943762 161.474896,12.6859237 C162.375555,10.5312212 162.585084,7.94807997 161.987771,6.39381706 C161.058966,3.97016764 155.736319,3.18834524 150.251053,4.6706805 M159.445285,6.84414675 C160.699328,7.83549755 159.845578,11.4912991 157.722148,14.2182956 C155.698792,16.8139459 150.860875,21.0170231 146.448269,24.0098392 C144.975316,25.0074446 143.20527,26.4022158 142.514139,27.1027286 C141.181914,28.4537177 135.837376,31.9469002 135.099335,31.9469002 C134.530169,31.9469002 134.974244,29.482596 136.719271,22.9528154 C137.504221,20.0162904 138.15157,16.9796923 138.157825,16.2072517 C138.164079,15.4316839 138.423644,13.8868029 138.733246,12.7672332 C139.277394,10.8032954 139.499432,10.6625673 145.056625,8.70801134 C153.985037,5.56508532 157.2812,5.13977394 159.445285,6.84414675 M187.872347,33.413599 C188.363331,33.6012364 188.763625,34.1578939 188.763625,34.6520056 C188.763625,35.7403024 185.458079,39.2553759 184.435456,39.2553759 C183.197049,39.2553759 183.62236,36.6284527 185.15786,34.8021155 C186.777796,32.8788325 186.646449,32.9445055 187.872347,33.413599 M182.577846,35.0397896 C182.577846,35.5057557 182.362063,35.8841577 182.096243,35.8841577 C181.833551,35.8841577 180.954782,36.4533244 180.144814,37.1475827 C175.578972,41.0692039 174.009072,41.7446984 173.361723,40.0590893 C172.945794,38.9707926 173.59627,37.7042403 175.475771,35.9467035 C176.623486,34.8740432 177.305236,34.6707694 178.890771,34.9272071 C179.979068,35.1023353 181.017328,35.011644 181.195584,34.720806 C181.702205,33.9045834 182.577846,34.10473 182.577846,35.0397896 M154.185184,39.818288 C153.994419,40.1278897 153.459653,40.3812001 152.993686,40.3812001 C152.530848,40.3812001 152.30881,40.1278897 152.499575,39.818288 C152.690339,39.5086864 153.225106,39.2553759 153.691072,39.2553759 C154.153911,39.2553759 154.375948,39.5086864 154.185184,39.818288 M147.608494,43.8118368 C147.37082,44.5186043 143.783819,46.1541767 143.786946,45.5537371 C143.786946,45.131553 146.563979,43.3302342 147.345801,43.2426701 C147.602239,43.2145245 147.721076,43.4709622 147.608494,43.8118368"></path>
            </g>
        </g>
    </g>
</svg>